<?xml version="1.0" encoding="UTF-8"?>
<!DOCTYPE svg PUBLIC "-//W3C//DTD SVG 1.1//EN" "http://www.w3.org/Graphics/SVG/1.1/DTD/svg11.dtd">
<svg xmlns="http://www.w3.org/2000/svg" version="1.1" width="240px" height="240px" style="shape-rendering:geometricPrecision; text-rendering:geometricPrecision; image-rendering:optimizeQuality; fill-rule:evenodd; clip-rule:evenodd" xmlns:xlink="http://www.w3.org/1999/xlink">
<g><path style="opacity:1" fill="#e7e7e7" d="M 8.5,-0.5 C 82.5,-0.5 156.5,-0.5 230.5,-0.5C 234.5,1.5 237.5,4.5 239.5,8.5C 239.5,11.8333 239.5,15.1667 239.5,18.5C 199.265,18.7578 159.265,18.4244 119.5,17.5C 119.529,7.36496 114.529,3.19829 104.5,5C 99.6113,7.73673 97.6113,11.9034 98.5,17.5C 95.4734,18.1394 92.1401,18.306 88.5,18C 87.8906,16.0517 87.224,14.2184 86.5,12.5C 84.3294,5.57863 79.6627,3.07863 72.5,5C 70.6769,5.99728 69.0103,7.16394 67.5,8.5C 61.8529,8.49376 56.5196,8.16043 51.5,7.5C 45.565,3.28358 39.8983,3.61691 34.5,8.5C 25.7196,8.01763 16.8863,8.01763 8,8.5C 5.38965,8.46677 3.22299,7.80011 1.5,6.5C 2.83965,3.16035 5.17298,0.827014 8.5,-0.5 Z"/></g>
<g><path style="opacity:1" fill="#cd453f" d="M 51.5,7.5 C 55.6392,12.87 55.3059,18.0367 50.5,23C 41.1034,27.635 35.4367,24.8017 33.5,14.5C 33.6718,12.4523 34.0051,10.4523 34.5,8.5C 39.8983,3.61691 45.565,3.28358 51.5,7.5 Z"/></g>
<g><path style="opacity:1" fill="#febd4b" d="M 86.5,12.5 C 86.899,21.6012 82.5656,25.7678 73.5,25C 66.7554,21.2901 64.7554,15.7901 67.5,8.5C 69.0103,7.16394 70.6769,5.99728 72.5,5C 79.6627,3.07863 84.3294,5.57863 86.5,12.5 Z"/></g>
<g><path style="opacity:1" fill="#26ba4a" d="M 119.5,17.5 C 112.453,28.153 105.453,28.153 98.5,17.5C 97.6113,11.9034 99.6113,7.73673 104.5,5C 114.529,3.19829 119.529,7.36496 119.5,17.5 Z"/></g>
<g><path style="opacity:1" fill="#dcdbdb" d="M 1.5,6.5 C 3.22299,7.80011 5.38965,8.46677 8,8.5C 16.8863,8.01763 25.7196,8.01763 34.5,8.5C 34.0051,10.4523 33.6718,12.4523 33.5,14.5C 35.4367,24.8017 41.1034,27.635 50.5,23C 55.3059,18.0367 55.6392,12.87 51.5,7.5C 56.5196,8.16043 61.8529,8.49376 67.5,8.5C 64.7554,15.7901 66.7554,21.2901 73.5,25C 82.5656,25.7678 86.899,21.6012 86.5,12.5C 87.224,14.2184 87.8906,16.0517 88.5,18C 92.1401,18.306 95.4734,18.1394 98.5,17.5C 105.453,28.153 112.453,28.153 119.5,17.5C 159.265,18.4244 199.265,18.7578 239.5,18.5C 239.5,22.1667 239.5,25.8333 239.5,29.5C 159.5,29.5 79.5,29.5 -0.5,29.5C -0.5,22.5 -0.5,15.5 -0.5,8.5C 0.166667,7.83333 0.833333,7.16667 1.5,6.5 Z"/></g>
<g><path style="opacity:1" fill="#151718" d="M -0.5,29.5 C 79.5,29.5 159.5,29.5 239.5,29.5C 239.5,39.8333 239.5,50.1667 239.5,60.5C 237.532,58.685 235.198,58.185 232.5,59C 234.5,60.6667 236.5,62.3333 238.5,64C 236.5,64.3333 234.5,64.6667 232.5,65C 233.167,65.3333 233.833,65.6667 234.5,66C 232.5,66.3333 230.5,66.6667 228.5,67C 230.935,68.0034 230.602,68.5034 227.5,68.5C 224.057,68.2787 223.724,67.2787 226.5,65.5C 225.478,64.646 224.645,63.646 224,62.5C 223.667,63.1667 223.333,63.8333 223,64.5C 220.787,63.2405 218.287,62.5738 215.5,62.5C 213.167,62.6667 210.833,62.8333 208.5,63C 212.332,62.9618 215.832,63.7951 219,65.5C 219.333,64.8333 219.667,64.1667 220,63.5C 220.5,64.6667 221.333,65.5 222.5,66C 220.336,66.3704 218.336,67.2038 216.5,68.5C 219.211,70.7433 219.044,72.7433 216,74.5C 213.86,73.2718 212.193,71.6051 211,69.5C 210.161,70.6241 208.994,71.2908 207.5,71.5C 206.867,69.882 204.534,68.882 200.5,68.5C 202.61,68.7064 204.61,67.8731 206.5,66C 203.167,65.3333 199.833,65.3333 196.5,66C 197.167,66.3333 197.833,66.6667 198.5,67C 196.5,67.3333 194.5,67.6667 192.5,68C 194.5,68.6667 196.5,69.3333 198.5,70C 195.167,70.6667 191.833,70.6667 188.5,70C 191.167,69.3333 191.167,68.6667 188.5,68C 190.992,66.7508 190.825,65.5842 188,64.5C 185.695,64.579 183.195,64.7457 180.5,65C 182.5,65.6667 184.5,66.3333 186.5,67C 183.183,67.4176 180.183,67.2509 177.5,66.5C 176.376,71.7208 175.542,71.7208 175,66.5C 174.801,68.4025 173.967,69.9025 172.5,71C 174.5,71.3333 176.5,71.6667 178.5,72C 175.972,73.0174 175.972,74.1841 178.5,75.5C 175.972,76.8159 175.972,77.9826 178.5,79C 177.833,79.3333 177.167,79.6667 176.5,80C 179.833,81 183.167,82 186.5,83C 183.183,83.4176 180.183,83.2509 177.5,82.5C 176.719,83.7287 176.219,85.062 176,86.5C 175.882,81.4566 173.382,79.6233 168.5,81C 169.167,81.3333 169.833,81.6667 170.5,82C 168.5,82.3333 166.5,82.6667 164.5,83C 165.167,83.3333 165.833,83.6667 166.5,84C 164.5,84.3333 162.5,84.6667 160.5,85C 159.874,85.7504 159.374,86.5838 159,87.5C 158.5,86.3333 157.667,85.5 156.5,85C 158.271,84.4646 158.604,83.6313 157.5,82.5C 156.575,83.6405 155.741,83.6405 155,82.5C 153.667,83.1667 152.667,84.1667 152,85.5C 151.667,84.8333 151.333,84.1667 151,83.5C 150.355,84.646 149.522,85.646 148.5,86.5C 150.5,87.1667 152.5,87.8333 154.5,88.5C 154.167,88.8333 153.833,89.1667 153.5,89.5C 149.53,89.967 145.197,90.1336 140.5,90C 143.167,91 143.167,92 140.5,93C 141.667,93.5 142.5,94.3333 143,95.5C 143.333,94.8333 143.667,94.1667 144,93.5C 147.168,95.2049 150.668,96.0382 154.5,96C 151.167,96.3333 147.833,96.6667 144.5,97C 146.901,97.805 146.734,98.6383 144,99.5C 142.127,98.9109 140.46,99.5776 139,101.5C 135.429,100.584 131.763,99.2511 128,97.5C 127.667,98.1667 127.333,98.8333 127,99.5C 126.082,97.3676 124.749,96.701 123,97.5C 122.25,96.8742 121.416,96.3742 120.5,96C 123.833,95.6667 127.167,95.3333 130.5,95C 129.333,94.5 128.5,93.6667 128,92.5C 127.667,93.1667 127.333,93.8333 127,94.5C 124.667,91.8333 122.333,91.8333 120,94.5C 119.426,92.508 118.259,91.008 116.5,90C 117.308,89.6924 117.975,89.1924 118.5,88.5C 117.147,87.4763 116.48,86.143 116.5,84.5C 119.079,84.0833 121.246,84.75 123,86.5C 124.333,85.8333 125.667,85.1667 127,84.5C 129.221,84.7056 131.388,85.0389 133.5,85.5C 134.541,83.0087 135.374,83.0087 136,85.5C 136.605,83.5188 137.605,83.1854 139,84.5C 139.903,83.2986 141.069,82.4652 142.5,82C 140.423,81.8078 138.423,81.3078 136.5,80.5C 139.276,78.7213 138.943,77.7213 135.5,77.5C 132.398,77.4966 132.065,77.9966 134.5,79C 132.209,80.6591 130.209,80.1591 128.5,77.5C 132.283,77.0533 135.783,76.0533 139,74.5C 139.626,76.9913 140.459,76.9913 141.5,74.5C 145.545,75.5776 149.878,75.5776 154.5,74.5C 153.726,73.2888 152.893,73.2888 152,74.5C 149.86,73.2718 148.193,71.6051 147,69.5C 146.161,70.6241 144.994,71.2908 143.5,71.5C 142.867,69.882 140.534,68.882 136.5,68.5C 138.61,68.7064 140.61,67.8731 142.5,66C 139.167,65.3333 135.833,65.3333 132.5,66C 133.167,66.3333 133.833,66.6667 134.5,67C 132.5,67.3333 130.5,67.6667 128.5,68C 130.5,68.6667 132.5,69.3333 134.5,70C 131.167,70.6667 127.833,70.6667 124.5,70C 127.167,69.3333 127.167,68.6667 124.5,68C 126.992,66.7508 126.825,65.5842 124,64.5C 121.695,64.579 119.195,64.7457 116.5,65C 118.5,65.6667 120.5,66.3333 122.5,67C 119.183,67.4176 116.183,67.2509 113.5,66.5C 112.376,71.7208 111.542,71.7208 111,66.5C 110.801,68.4025 109.967,69.9025 108.5,71C 110.5,71.3333 112.5,71.6667 114.5,72C 111.972,73.0174 111.972,74.1841 114.5,75.5C 111.972,76.8159 111.972,77.9826 114.5,79C 113.833,79.3333 113.167,79.6667 112.5,80C 115.833,81 119.167,82 122.5,83C 119.183,83.4176 116.183,83.2509 113.5,82.5C 112.719,83.7287 112.219,85.062 112,86.5C 111.882,81.4566 109.382,79.6233 104.5,81C 105.167,81.3333 105.833,81.6667 106.5,82C 104.5,82.3333 102.5,82.6667 100.5,83C 101.167,83.3333 101.833,83.6667 102.5,84C 100.5,84.3333 98.5,84.6667 96.5,85C 95.8742,85.7504 95.3742,86.5838 95,87.5C 94.5,86.3333 93.6667,85.5 92.5,85C 94.2705,84.4646 94.6039,83.6313 93.5,82.5C 92.5745,83.6405 91.7412,83.6405 91,82.5C 89.6667,83.1667 88.6667,84.1667 88,85.5C 87.6667,84.8333 87.3333,84.1667 87,83.5C 86.3551,84.646 85.5217,85.646 84.5,86.5C 86.5,87.1667 88.5,87.8333 90.5,88.5C 89.7579,89.2868 88.9246,89.9535 88,90.5C 84.5902,90.5018 80.7569,90.3351 76.5,90C 79.1667,91 79.1667,92 76.5,93C 77.6667,93.5 78.5,94.3333 79,95.5C 79.3333,94.8333 79.6667,94.1667 80,93.5C 80.1992,95.4025 81.0325,96.9025 82.5,98C 80.5,98.6667 78.5,99.3333 76.5,100C 79.0076,100.654 81.1742,101.821 83,103.5C 83.3333,102.833 83.6667,102.167 84,101.5C 85.7863,103.099 87.953,103.933 90.5,104C 87.666,104.045 85.166,104.879 83,106.5C 80.9361,105.409 78.7695,105.242 76.5,106C 77.3081,106.308 77.9747,106.808 78.5,107.5C 76.7844,108.549 75.4511,109.882 74.5,111.5C 74.5,108.167 74.5,104.833 74.5,101.5C 71.2093,100.526 67.7093,99.1929 64,97.5C 63.6667,98.1667 63.3333,98.8333 63,99.5C 62.082,97.3676 60.7487,96.701 59,97.5C 58.2496,96.8742 57.4162,96.3742 56.5,96C 59.8333,95.6667 63.1667,95.3333 66.5,95C 65.3333,94.5 64.5,93.6667 64,92.5C 63.6667,93.1667 63.3333,93.8333 63,94.5C 60.6667,91.8333 58.3333,91.8333 56,94.5C 55.4257,92.508 54.259,91.008 52.5,90C 53.3081,89.6924 53.9747,89.1924 54.5,88.5C 53.1468,87.4763 52.4802,86.143 52.5,84.5C 58.5261,85.4356 64.1927,85.7689 69.5,85.5C 70.5407,83.0087 71.3741,83.0087 72,85.5C 72.6054,83.5188 73.6054,83.1854 75,84.5C 75.9025,83.2986 77.0692,82.4652 78.5,82C 76.4233,81.8078 74.4233,81.3078 72.5,80.5C 75.2764,78.7213 74.9431,77.7213 71.5,77.5C 68.3982,77.4966 68.0649,77.9966 70.5,79C 68.2091,80.6591 66.2091,80.1591 64.5,77.5C 68.2834,77.0533 71.7834,76.0533 75,74.5C 75.6259,76.9913 76.4593,76.9913 77.5,74.5C 81.5446,75.5776 85.8779,75.5776 90.5,74.5C 89.7261,73.2888 88.8928,73.2888 88,74.5C 85.8601,73.2718 84.1934,71.6051 83,69.5C 82.1612,70.6241 80.9945,71.2908 79.5,71.5C 78.8674,69.882 76.534,68.882 72.5,68.5C 74.6102,68.7064 76.6102,67.8731 78.5,66C 75.1667,65.3333 71.8333,65.3333 68.5,66C 69.1667,66.3333 69.8333,66.6667 70.5,67C 68.5,67.3333 66.5,67.6667 64.5,68C 66.5,68.6667 68.5,69.3333 70.5,70C 67.1667,70.6667 63.8333,70.6667 60.5,70C 63.1667,69.3333 63.1667,68.6667 60.5,68C 62.9915,66.7508 62.8249,65.5842 60,64.5C 57.695,64.579 55.195,64.7457 52.5,65C 54.5,65.6667 56.5,66.3333 58.5,67C 55.1829,67.4176 52.1829,67.2509 49.5,66.5C 48.3756,71.7208 47.5423,71.7208 47,66.5C 46.8008,68.4025 45.9675,69.9025 44.5,71C 46.5,71.3333 48.5,71.6667 50.5,72C 47.972,73.0174 47.972,74.1841 50.5,75.5C 47.972,76.8159 47.972,77.9826 50.5,79C 49.8333,79.3333 49.1667,79.6667 48.5,80C 51.8333,81 55.1667,82 58.5,83C 55.1829,83.4176 52.1829,83.2509 49.5,82.5C 48.7189,83.7287 48.2189,85.062 48,86.5C 47.8815,81.4566 45.3815,79.6233 40.5,81C 41.1667,81.3333 41.8333,81.6667 42.5,82C 40.5,82.3333 38.5,82.6667 36.5,83C 37.1667,83.3333 37.8333,83.6667 38.5,84C 36.5,84.3333 34.5,84.6667 32.5,85C 31.8742,85.7504 31.3742,86.5838 31,87.5C 30.5,86.3333 29.6667,85.5 28.5,85C 30.2705,84.4646 30.6039,83.6313 29.5,82.5C 28.5745,83.6405 27.7412,83.6405 27,82.5C 25.6667,83.1667 24.6667,84.1667 24,85.5C 23.6667,84.8333 23.3333,84.1667 23,83.5C 22.3551,84.646 21.5217,85.646 20.5,86.5C 22.5,87.1667 24.5,87.8333 26.5,88.5C 26.1667,88.8333 25.8333,89.1667 25.5,89.5C 21.53,89.967 17.1967,90.1336 12.5,90C 15.1667,91 15.1667,92 12.5,93C 13.6667,93.5 14.5,94.3333 15,95.5C 15.3333,94.8333 15.6667,94.1667 16,93.5C 19.168,95.2049 22.668,96.0382 26.5,96C 23.1667,96.3333 19.8333,96.6667 16.5,97C 17.1667,97.3333 17.8333,97.6667 18.5,98C 16.5,98.6667 14.5,99.3333 12.5,100C 13.7604,101.113 14.927,101.28 16,100.5C 17.3333,101.167 18.3333,102.167 19,103.5C 19.3333,102.833 19.6667,102.167 20,101.5C 21.7863,103.099 23.953,103.933 26.5,104C 23.666,104.045 21.166,104.879 19,106.5C 16.9361,105.409 14.7695,105.242 12.5,106C 13.3081,106.308 13.9747,106.808 14.5,107.5C 12.8035,108.364 11.6368,109.697 11,111.5C 10.5,110.333 9.66667,109.5 8.5,109C 10.2705,108.465 10.6039,107.631 9.5,106.5C 6.83333,107.833 4.16667,107.833 1.5,106.5C 0.818153,107.243 0.151487,107.909 -0.5,108.5C -0.5,82.1667 -0.5,55.8333 -0.5,29.5 Z"/></g>
<g><path style="opacity:1" fill="#151718" d="M 239.5,60.5 C 239.5,113.833 239.5,167.167 239.5,220.5C 237.353,216.189 234.02,213.022 229.5,211C 152.834,210.5 76.1674,210.333 -0.5,210.5C -0.5,176.5 -0.5,142.5 -0.5,108.5C 0.151487,107.909 0.818153,107.243 1.5,106.5C 4.16667,107.833 6.83333,107.833 9.5,106.5C 10.6039,107.631 10.2705,108.465 8.5,109C 9.66667,109.5 10.5,110.333 11,111.5C 11.6368,109.697 12.8035,108.364 14.5,107.5C 13.9747,106.808 13.3081,106.308 12.5,106C 14.7695,105.242 16.9361,105.409 19,106.5C 21.166,104.879 23.666,104.045 26.5,104C 23.953,103.933 21.7863,103.099 20,101.5C 19.6667,102.167 19.3333,102.833 19,103.5C 18.3333,102.167 17.3333,101.167 16,100.5C 14.927,101.28 13.7604,101.113 12.5,100C 14.5,99.3333 16.5,98.6667 18.5,98C 17.8333,97.6667 17.1667,97.3333 16.5,97C 19.8333,96.6667 23.1667,96.3333 26.5,96C 22.668,96.0382 19.168,95.2049 16,93.5C 15.6667,94.1667 15.3333,94.8333 15,95.5C 14.5,94.3333 13.6667,93.5 12.5,93C 15.1667,92 15.1667,91 12.5,90C 17.1967,90.1336 21.53,89.967 25.5,89.5C 25.8333,89.1667 26.1667,88.8333 26.5,88.5C 24.5,87.8333 22.5,87.1667 20.5,86.5C 21.5217,85.646 22.3551,84.646 23,83.5C 23.3333,84.1667 23.6667,84.8333 24,85.5C 24.6667,84.1667 25.6667,83.1667 27,82.5C 27.7412,83.6405 28.5745,83.6405 29.5,82.5C 30.6039,83.6313 30.2705,84.4646 28.5,85C 29.6667,85.5 30.5,86.3333 31,87.5C 31.3742,86.5838 31.8742,85.7504 32.5,85C 34.5,84.6667 36.5,84.3333 38.5,84C 37.8333,83.6667 37.1667,83.3333 36.5,83C 38.5,82.6667 40.5,82.3333 42.5,82C 41.8333,81.6667 41.1667,81.3333 40.5,81C 45.3815,79.6233 47.8815,81.4566 48,86.5C 48.2189,85.062 48.7189,83.7287 49.5,82.5C 52.1829,83.2509 55.1829,83.4176 58.5,83C 55.1667,82 51.8333,81 48.5,80C 49.1667,79.6667 49.8333,79.3333 50.5,79C 47.972,77.9826 47.972,76.8159 50.5,75.5C 47.972,74.1841 47.972,73.0174 50.5,72C 48.5,71.6667 46.5,71.3333 44.5,71C 45.9675,69.9025 46.8008,68.4025 47,66.5C 47.5423,71.7208 48.3756,71.7208 49.5,66.5C 52.1829,67.2509 55.1829,67.4176 58.5,67C 56.5,66.3333 54.5,65.6667 52.5,65C 55.195,64.7457 57.695,64.579 60,64.5C 62.8249,65.5842 62.9915,66.7508 60.5,68C 63.1667,68.6667 63.1667,69.3333 60.5,70C 63.8333,70.6667 67.1667,70.6667 70.5,70C 68.5,69.3333 66.5,68.6667 64.5,68C 66.5,67.6667 68.5,67.3333 70.5,67C 69.8333,66.6667 69.1667,66.3333 68.5,66C 71.8333,65.3333 75.1667,65.3333 78.5,66C 76.6102,67.8731 74.6102,68.7064 72.5,68.5C 76.534,68.882 78.8674,69.882 79.5,71.5C 80.9945,71.2908 82.1612,70.6241 83,69.5C 84.1934,71.6051 85.8601,73.2718 88,74.5C 88.8928,73.2888 89.7261,73.2888 90.5,74.5C 85.8779,75.5776 81.5446,75.5776 77.5,74.5C 76.4593,76.9913 75.6259,76.9913 75,74.5C 71.7834,76.0533 68.2834,77.0533 64.5,77.5C 66.2091,80.1591 68.2091,80.6591 70.5,79C 68.0649,77.9966 68.3982,77.4966 71.5,77.5C 74.9431,77.7213 75.2764,78.7213 72.5,80.5C 74.4233,81.3078 76.4233,81.8078 78.5,82C 77.0692,82.4652 75.9025,83.2986 75,84.5C 73.6054,83.1854 72.6054,83.5188 72,85.5C 71.3741,83.0087 70.5407,83.0087 69.5,85.5C 64.1927,85.7689 58.5261,85.4356 52.5,84.5C 52.4802,86.143 53.1468,87.4763 54.5,88.5C 53.9747,89.1924 53.3081,89.6924 52.5,90C 54.259,91.008 55.4257,92.508 56,94.5C 58.3333,91.8333 60.6667,91.8333 63,94.5C 63.3333,93.8333 63.6667,93.1667 64,92.5C 64.5,93.6667 65.3333,94.5 66.5,95C 63.1667,95.3333 59.8333,95.6667 56.5,96C 57.4162,96.3742 58.2496,96.8742 59,97.5C 60.7487,96.701 62.082,97.3676 63,99.5C 63.3333,98.8333 63.6667,98.1667 64,97.5C 67.7093,99.1929 71.2093,100.526 74.5,101.5C 69.1667,101.5 63.8333,101.5 58.5,101.5C 58.5,103.167 58.5,104.833 58.5,106.5C 61.8333,106.5 65.1667,106.5 68.5,106.5C 68.3335,117.172 68.5002,127.839 69,138.5C 73.0733,144.63 78.5733,146.13 85.5,143C 86.677,140.842 86.0103,139.342 83.5,138.5C 80.3547,140.166 77.5214,139.833 75,137.5C 74.5002,128.84 74.3336,120.173 74.5,111.5C 75.4511,109.882 76.7844,108.549 78.5,107.5C 77.9747,106.808 77.3081,106.308 76.5,106C 78.7695,105.242 80.9361,105.409 83,106.5C 85.166,104.879 87.666,104.045 90.5,104C 87.953,103.933 85.7863,103.099 84,101.5C 83.6667,102.167 83.3333,102.833 83,103.5C 81.1742,101.821 79.0076,100.654 76.5,100C 78.5,99.3333 80.5,98.6667 82.5,98C 81.0325,96.9025 80.1992,95.4025 80,93.5C 79.6667,94.1667 79.3333,94.8333 79,95.5C 78.5,94.3333 77.6667,93.5 76.5,93C 79.1667,92 79.1667,91 76.5,90C 80.7569,90.3351 84.5902,90.5018 88,90.5C 88.9246,89.9535 89.7579,89.2868 90.5,88.5C 88.5,87.8333 86.5,87.1667 84.5,86.5C 85.5217,85.646 86.3551,84.646 87,83.5C 87.3333,84.1667 87.6667,84.8333 88,85.5C 88.6667,84.1667 89.6667,83.1667 91,82.5C 91.7412,83.6405 92.5745,83.6405 93.5,82.5C 94.6039,83.6313 94.2705,84.4646 92.5,85C 93.6667,85.5 94.5,86.3333 95,87.5C 95.3742,86.5838 95.8742,85.7504 96.5,85C 98.5,84.6667 100.5,84.3333 102.5,84C 101.833,83.6667 101.167,83.3333 100.5,83C 102.5,82.6667 104.5,82.3333 106.5,82C 105.833,81.6667 105.167,81.3333 104.5,81C 109.382,79.6233 111.882,81.4566 112,86.5C 112.219,85.062 112.719,83.7287 113.5,82.5C 116.183,83.2509 119.183,83.4176 122.5,83C 119.167,82 115.833,81 112.5,80C 113.167,79.6667 113.833,79.3333 114.5,79C 111.972,77.9826 111.972,76.8159 114.5,75.5C 111.972,74.1841 111.972,73.0174 114.5,72C 112.5,71.6667 110.5,71.3333 108.5,71C 109.967,69.9025 110.801,68.4025 111,66.5C 111.542,71.7208 112.376,71.7208 113.5,66.5C 116.183,67.2509 119.183,67.4176 122.5,67C 120.5,66.3333 118.5,65.6667 116.5,65C 119.195,64.7457 121.695,64.579 124,64.5C 126.825,65.5842 126.992,66.7508 124.5,68C 127.167,68.6667 127.167,69.3333 124.5,70C 127.833,70.6667 131.167,70.6667 134.5,70C 132.5,69.3333 130.5,68.6667 128.5,68C 130.5,67.6667 132.5,67.3333 134.5,67C 133.833,66.6667 133.167,66.3333 132.5,66C 135.833,65.3333 139.167,65.3333 142.5,66C 140.61,67.8731 138.61,68.7064 136.5,68.5C 140.534,68.882 142.867,69.882 143.5,71.5C 144.994,71.2908 146.161,70.6241 147,69.5C 148.193,71.6051 149.86,73.2718 152,74.5C 152.893,73.2888 153.726,73.2888 154.5,74.5C 149.878,75.5776 145.545,75.5776 141.5,74.5C 140.459,76.9913 139.626,76.9913 139,74.5C 135.783,76.0533 132.283,77.0533 128.5,77.5C 130.209,80.1591 132.209,80.6591 134.5,79C 132.065,77.9966 132.398,77.4966 135.5,77.5C 138.943,77.7213 139.276,78.7213 136.5,80.5C 138.423,81.3078 140.423,81.8078 142.5,82C 141.069,82.4652 139.903,83.2986 139,84.5C 137.605,83.1854 136.605,83.5188 136,85.5C 135.374,83.0087 134.541,83.0087 133.5,85.5C 131.388,85.0389 129.221,84.7056 127,84.5C 125.667,85.1667 124.333,85.8333 123,86.5C 121.246,84.75 119.079,84.0833 116.5,84.5C 116.48,86.143 117.147,87.4763 118.5,88.5C 117.975,89.1924 117.308,89.6924 116.5,90C 118.259,91.008 119.426,92.508 120,94.5C 122.333,91.8333 124.667,91.8333 127,94.5C 127.333,93.8333 127.667,93.1667 128,92.5C 128.5,93.6667 129.333,94.5 130.5,95C 127.167,95.3333 123.833,95.6667 120.5,96C 121.416,96.3742 122.25,96.8742 123,97.5C 124.749,96.701 126.082,97.3676 127,99.5C 127.333,98.8333 127.667,98.1667 128,97.5C 131.763,99.2511 135.429,100.584 139,101.5C 140.46,99.5776 142.127,98.9109 144,99.5C 146.734,98.6383 146.901,97.805 144.5,97C 147.833,96.6667 151.167,96.3333 154.5,96C 150.668,96.0382 147.168,95.2049 144,93.5C 143.667,94.1667 143.333,94.8333 143,95.5C 142.5,94.3333 141.667,93.5 140.5,93C 143.167,92 143.167,91 140.5,90C 145.197,90.1336 149.53,89.967 153.5,89.5C 153.833,89.1667 154.167,88.8333 154.5,88.5C 152.5,87.8333 150.5,87.1667 148.5,86.5C 149.522,85.646 150.355,84.646 151,83.5C 151.333,84.1667 151.667,84.8333 152,85.5C 152.667,84.1667 153.667,83.1667 155,82.5C 155.741,83.6405 156.575,83.6405 157.5,82.5C 158.604,83.6313 158.271,84.4646 156.5,85C 157.667,85.5 158.5,86.3333 159,87.5C 159.374,86.5838 159.874,85.7504 160.5,85C 162.5,84.6667 164.5,84.3333 166.5,84C 165.833,83.6667 165.167,83.3333 164.5,83C 166.5,82.6667 168.5,82.3333 170.5,82C 169.833,81.6667 169.167,81.3333 168.5,81C 173.382,79.6233 175.882,81.4566 176,86.5C 176.219,85.062 176.719,83.7287 177.5,82.5C 180.183,83.2509 183.183,83.4176 186.5,83C 183.167,82 179.833,81 176.5,80C 177.167,79.6667 177.833,79.3333 178.5,79C 175.972,77.9826 175.972,76.8159 178.5,75.5C 175.972,74.1841 175.972,73.0174 178.5,72C 176.5,71.6667 174.5,71.3333 172.5,71C 173.967,69.9025 174.801,68.4025 175,66.5C 175.542,71.7208 176.376,71.7208 177.5,66.5C 180.183,67.2509 183.183,67.4176 186.5,67C 184.5,66.3333 182.5,65.6667 180.5,65C 183.195,64.7457 185.695,64.579 188,64.5C 190.825,65.5842 190.992,66.7508 188.5,68C 191.167,68.6667 191.167,69.3333 188.5,70C 191.833,70.6667 195.167,70.6667 198.5,70C 196.5,69.3333 194.5,68.6667 192.5,68C 194.5,67.6667 196.5,67.3333 198.5,67C 197.833,66.6667 197.167,66.3333 196.5,66C 199.833,65.3333 203.167,65.3333 206.5,66C 204.61,67.8731 202.61,68.7064 200.5,68.5C 204.534,68.882 206.867,69.882 207.5,71.5C 208.994,71.2908 210.161,70.6241 211,69.5C 212.193,71.6051 213.86,73.2718 216,74.5C 219.044,72.7433 219.211,70.7433 216.5,68.5C 218.336,67.2038 220.336,66.3704 222.5,66C 221.333,65.5 220.5,64.6667 220,63.5C 219.667,64.1667 219.333,64.8333 219,65.5C 215.832,63.7951 212.332,62.9618 208.5,63C 210.833,62.8333 213.167,62.6667 215.5,62.5C 218.287,62.5738 220.787,63.2405 223,64.5C 223.333,63.8333 223.667,63.1667 224,62.5C 224.645,63.646 225.478,64.646 226.5,65.5C 223.724,67.2787 224.057,68.2787 227.5,68.5C 230.602,68.5034 230.935,68.0034 228.5,67C 230.5,66.6667 232.5,66.3333 234.5,66C 233.833,65.6667 233.167,65.3333 232.5,65C 234.5,64.6667 236.5,64.3333 238.5,64C 236.5,62.3333 234.5,60.6667 232.5,59C 235.198,58.185 237.532,58.685 239.5,60.5 Z"/></g>
<g><path style="opacity:1" fill="#44b833" d="M 74.5,101.5 C 74.5,104.833 74.5,108.167 74.5,111.5C 74.3336,120.173 74.5002,128.84 75,137.5C 77.5214,139.833 80.3547,140.166 83.5,138.5C 86.0103,139.342 86.677,140.842 85.5,143C 78.5733,146.13 73.0733,144.63 69,138.5C 68.5002,127.839 68.3335,117.172 68.5,106.5C 65.1667,106.5 61.8333,106.5 58.5,106.5C 58.5,104.833 58.5,103.167 58.5,101.5C 63.8333,101.5 69.1667,101.5 74.5,101.5 Z"/></g>
<g><path style="opacity:1" fill="#43b934" d="M 183.5,101.5 C 185.167,101.5 186.833,101.5 188.5,101.5C 183.176,117.971 177.342,134.304 171,150.5C 169.482,153.754 167.315,154.254 164.5,152C 171.13,135.276 177.463,118.443 183.5,101.5 Z"/></g>
<g><path style="opacity:1" fill="#44ba34" d="M 47.5,108.5 C 48.6491,108.791 49.3158,109.624 49.5,111C 49.3333,111.833 49.1667,112.667 49,113.5C 43.7761,117.723 38.2761,121.556 32.5,125C 38.0873,128.71 43.5873,132.543 49,136.5C 49.6667,138.5 49.6667,140.5 49,142.5C 41.9207,137.377 34.754,132.377 27.5,127.5C 26.1667,125.833 26.1667,124.167 27.5,122.5C 34.4845,118.165 41.1512,113.498 47.5,108.5 Z"/></g>
<g><path style="opacity:1" fill="#44bb34" d="M 200.5,108.5 C 207.279,112.395 213.945,116.561 220.5,121C 223.167,123.667 223.167,126.333 220.5,129C 214.302,133.363 207.969,137.53 201.5,141.5C 200.369,139.926 200.202,138.259 201,136.5C 206.224,132.277 211.724,128.444 217.5,125C 212.031,121.697 206.698,118.197 201.5,114.5C 200.534,112.604 200.201,110.604 200.5,108.5 Z"/></g>
<g><path style="opacity:1" fill="#44bb34" d="M 138.5,113.5 C 147.366,112.509 153.199,116.176 156,124.5C 156.876,141.302 149.376,147.135 133.5,142C 127.885,137.032 126.052,130.865 128,123.5C 130.106,118.557 133.606,115.224 138.5,113.5 Z"/></g>
<g><path style="opacity:1" fill="#44bb34" d="M 93.5,114.5 C 95.5,114.5 97.5,114.5 99.5,114.5C 99.3337,121.508 99.5004,128.508 100,135.5C 102.129,139.825 105.296,140.659 109.5,138C 110.667,136.833 111.833,135.667 113,134.5C 113.5,127.842 113.666,121.175 113.5,114.5C 115.5,114.5 117.5,114.5 119.5,114.5C 119.5,124.167 119.5,133.833 119.5,143.5C 117.833,143.5 116.167,143.5 114.5,143.5C 114.657,142.127 114.49,140.793 114,139.5C 107.879,145.645 101.545,145.978 95,140.5C 93.5901,131.916 93.0901,123.25 93.5,114.5 Z"/></g>
<g><path style="opacity:1" fill="#161918" d="M 139.5,118.5 C 146.556,118.389 150.223,121.889 150.5,129C 149.882,137.64 145.549,140.64 137.5,138C 133.741,134.257 132.574,129.757 134,124.5C 135.36,121.977 137.193,119.977 139.5,118.5 Z"/></g>
<g><path style="opacity:1" fill="#232323" d="M -0.5,210.5 C 76.1674,210.333 152.834,210.5 229.5,211C 234.02,213.022 237.353,216.189 239.5,220.5C 239.5,223.833 239.5,227.167 239.5,230.5C 237.5,234.5 234.5,237.5 230.5,239.5C 156.5,239.5 82.5,239.5 8.5,239.5C 4.5,237.5 1.5,234.5 -0.5,230.5C -0.5,223.833 -0.5,217.167 -0.5,210.5 Z"/></g>
<g><path style="opacity:1" fill="#41413f" d="M 86.5,219.5 C 90.9757,219.822 92.4757,222.156 91,226.5C 87.4467,229.477 85.2801,228.643 84.5,224C 84.5186,222.167 85.1852,220.667 86.5,219.5 Z"/></g>
<g><path style="opacity:1" fill="#4b4c48" d="M 161.5,220.5 C 163.062,222.372 164.062,224.705 164.5,227.5C 165.086,227.291 165.586,226.957 166,226.5C 166.333,224.5 166.667,222.5 167,220.5C 167.769,223.099 167.602,225.599 166.5,228C 164.888,228.72 163.388,228.554 162,227.5C 161.503,225.19 161.337,222.857 161.5,220.5 Z"/></g>
<g><path style="opacity:1" fill="#4c4f4f" d="M 33.5,220.5 C 35.0481,220.821 35.7148,221.821 35.5,223.5C 36.5,223.5 37.5,223.5 38.5,223.5C 39.7726,225.084 39.7726,225.418 38.5,224.5C 37.5,224.5 36.5,224.5 35.5,224.5C 35.762,225.978 35.4287,227.311 34.5,228.5C 33.52,225.914 33.1866,223.247 33.5,220.5 Z"/></g>
<g><path style="opacity:1" fill="#4d4d4c" d="M 107.5,220.5 C 109.335,221.122 110.502,222.456 111,224.5C 111.333,223.167 111.667,221.833 112,220.5C 112.818,223.227 112.652,225.894 111.5,228.5C 110.416,227.335 109.583,226.002 109,224.5C 108.667,225.833 108.333,227.167 108,228.5C 107.503,225.854 107.336,223.187 107.5,220.5 Z"/></g>
<g><path style="opacity:1" fill="#4d4d4c" d="M 169.5,220.5 C 171.335,221.122 172.502,222.456 173,224.5C 173.333,223.167 173.667,221.833 174,220.5C 174.818,223.227 174.652,225.894 173.5,228.5C 172.416,227.335 171.583,226.002 171,224.5C 170.667,225.833 170.333,227.167 170,228.5C 169.503,225.854 169.336,223.187 169.5,220.5 Z"/></g>
<g><path style="opacity:1" fill="#4d4e4b" d="M 186.5,220.5 C 188.12,221.841 189.12,223.674 189.5,226C 188.874,226.75 188.374,227.584 188,228.5C 186.796,227.141 185.296,226.141 183.5,225.5C 184.26,223.64 185.26,221.973 186.5,220.5 Z"/></g>
<g><path style="opacity:1" fill="#4d4d4a" d="M 116.5,219.5 C 117.675,219.281 118.675,219.614 119.5,220.5C 116.003,221.173 114.837,223.173 116,226.5C 118.391,227.602 118.891,226.936 117.5,224.5C 118.325,223.614 119.325,223.281 120.5,223.5C 120.5,225.167 120.5,226.833 120.5,228.5C 114.933,229.247 113.1,226.913 115,221.5C 115.717,220.956 116.217,220.289 116.5,219.5 Z"/></g>
</svg>
