<?xml version="1.0" standalone="no"?><!DOCTYPE svg PUBLIC "-//W3C//DTD SVG 1.1//EN" "http://www.w3.org/Graphics/SVG/1.1/DTD/svg11.dtd">
<svg class="-mt-0 text-red-400 icon dark:text-red-500 fill-blue-600" viewBox="0 0 1024 1024" width="14" height="14">
    <path d="M750.4 308.8c-4.8-4.8-12.8-1.6-12.8 4.8 0 40 16 97.6-49.6 123.2 0 0 9.6-268.8-281.6-310.4-6.4-1.6-11.2 4.8-9.6 11.2 11.2 38.4 32 156.8-72 230.4-6.4 4.8-11.2 8-17.6 12.8-30.4-38.4-75.2-52.8-94.4-56-3.2-1.6-6.4 3.2-4.8 6.4 28.8 80-27.2 168-27.2 168h1.6c-36.8 54.4-51.2 118.4-25.6 209.6 0 0 51.2 152 243.2 188.8l-6.4-6.4s-116.8-118.4-65.6-256c28.8-73.6 89.6-113.6 89.6-113.6s-28.8 96 38.4 124.8c0 0-11.2-144 112-195.2 0 0-14.4 75.2 48 163.2 64 89.6 107.2 200 22.4 272-3.2 1.6-4.8 4.8-8 6.4 94.4-24 153.6-78.4 193.6-132.8 60.8-84.8 88-275.2-73.6-451.2z" fill="currentColor" p-id="10161"></path>
</svg>