<?xml version="1.0" standalone="no"?><!DOCTYPE svg PUBLIC "-//W3C//DTD SVG 1.1//EN" "http://www.w3.org/Graphics/SVG/1.1/DTD/svg11.dtd"><svg t="1731486031985" class="icon" viewBox="0 0 1024 1024" version="1.1" xmlns="http://www.w3.org/2000/svg" p-id="6244" xmlns:xlink="http://www.w3.org/1999/xlink" width="128" height="128"><path d="M454.1 752.1H262.9v26.1h191.2v-26.1z m269.8-585.4c-4.3-0.4-8.7-0.9-12.9-1.1-4.9-0.5-9.6-1-14.4-1.7 4.8 0.7 9.6 1.2 14.4 1.7 4.3 0.2 8.5 0.9 12.9 1.1z" fill="#E12319" p-id="6245"></path><path d="M850.3 0H174.1C78.1 0 0.2 77.9 0.2 173.9v676.2c0 96 77.9 173.9 173.9 173.9h676.2c96 0 173.9-77.9 173.9-173.9V173.9c0-96-77.8-173.9-173.9-173.9z m-658 292.8c2.2-5.9 4-11.7 6.7-17.3 3.4-7.1 7.7-13.7 12.7-19.8 12.4-15.1 21-32.5 28.2-50.6 4.1-10.3 8.7-20.4 12.8-30.8 4.8-11.8 15.1-13.9 25.6-10.7 5.1 1.6 9.8 4.4 13.8 7.8 7.8 6.6 16.7 11.7 25.3 17.5 1.5 1 2.6 1.5 4.1-0.2 16.4-17.7 36.7-29.5 58.5-39.1 42.8-19 87.7-31.4 133.9-39.1 37.6-6.2 75.4-7.4 113.5-5.6 0.7 0 1.5-0.1 2.2-0.1 2.2-2.1 4.1-1.2 6.2 0.2 1.5 0.5 2.9 0.6 4.4 0.4 1-0.9 1.8-0.9 2.7 0.2 5.4 0.5 10.6 1.1 16 1.6 1-0.9 1.8-0.7 2.6 0.2 1.8 0.2 3.5 0.4 5.4 0.6 0.7-0.7 1.2-0.6 1.7 0.2 1.1 0.5 2.3 0.7 3.5 0.5 1.5-1.2 2.7-0.9 3.8 0.6 8.9 2 17.9 3.7 26.8 5.9 24.3 6 47.7 14 67.6 30.1 16 12.9 22.2 29.2 18.9 49.9-4.5 27.9-14.3 53.7-28.1 78.2-1.7 3.1-4.8 4.6-6.8 7.2 1 4.8-3.7 7.1-4.8 11-1 3.3-3.9 5.4-6 7.9-0.1 0.5-0.2 1.1-1 0.7 0 0.6 0.2 1.6-0.9 0.9 0.7 2-1.2 2.8-2.1 3.9-12.8 17-28.7 30.8-45.4 43.7-34.8 27-74.6 42.8-117.8 50.3-10.7 1.8-21.6 0-32.3-1.2-7.9-0.9-15.9-1.8-23.8-3.4-1.5-0.2-3.2-1.5-4.6 0.1-0.1 0.1-0.5 0.2-0.6 0.4-0.9-5.6-5.9-3.3-8.7-3.9-24.8-5.7-47.5-16.6-69.6-28.7-28.7-15.9-56.5-33.1-80.4-56-18.4-17.7-34.5-37.1-44.5-61-2-4.8-3.8-9.8-4.5-14.9-0.5-3.7-2-5.9-5.7-7 0.7 8.3 1.2 16.6 0.5 24.8-2.6 33.1-18.5 56.4-50.2 67.9-10.5 3.8-20.6 8.7-32.1 9.8-15.1 1.5-34.3-15-27.5-33.1z m83.1 577.7c-7.6 13.5-18.2 25.5-27.5 38.1-7.4 10-17.2 13.2-31 9 4.4-7.8 9.5-14.8 12.4-22.6 8.4-22.3 16.5-44.9 23.6-67.7 2.3-7.3 4.3-11.2 12.6-10.7 10 0.6 20 0.1 34.5 0.1-8.9 20.1-15.4 37.7-24.6 53.8z m102.8-9.8c-0.6 40-23.4 60.5-65.2 57.7v-17c24.4-8.7 25.6-10.5 25.6-37.3v-62.7H225V731h266.6v69.6H378.2v43.7c0 5.3 0.1 10.9 0 16.4z m92.4 49.6c-24.4-26.2-41.1-56.5-51.1-93h38.3c13.3 34.4 26.1 67.7 39.1 101.2-9 2.4-17.8 0.9-26.3-8.2z m30.7-198.5H215.4v-20.1h122.8c0.6-5.9 1-10.4 1.6-15.9h37.6c0.7 5 1.5 9.9 2.4 16.1h91.6c4.6 0 9.3-0.1 13.9-0.1 18.1-0.2 18.2-0.1 16 20z m32.6-210.5c-5.4 11.7-8.3 24.4-12 36.7-0.9 2.8-1.8 4.3-5 4.1-3.7 0-8.4 2.2-10.7 0.1-2.4-2.2-0.2-7 0-10.5 1.1-14 1.7-28.1 0.9-42.5-4.6 1.5-8.3 4.3-11.7 7.2-13.3 11.1-24.3 24.4-36.7 36.2-2.1 2-4.1 3.8-6 6-2.7 3.4-6.3 3.8-10.3 4.1-3.5 0.4-4.3-0.7-2.4-4 6.7-11.2 13.2-22.6 19.8-33.8 3.5-6.1 7-12.4 10.9-18.4 2-3.1 0.6-3.7-1.8-4.3-4.5-1.1-8.5-3.3-12.2-6.1-8.8-6.7-12.9-20.5-8.9-30.6 1.3 4.6 2.9 8.9 5.7 12.6 8.7 11.7 21.4 9.6 30.6 4.4 1.1-0.6 1.7-2 2.4-3.2 11-18.3 21.8-36.6 32.7-55 1.7-2.9 3.3-3.5 6.7-2.9 14.6 2.7 29.3 4.9 44.2 3.1 7.1-0.9 13.9-2.4 21-6.5v7.3c-0.4 44.2-0.7 88.5-0.9 132.7 0 4.1-1.2 4.9-5 4.5-9.3-0.9-9.2-0.7-11.5-9.9-2.7-10.3-4-21-7.8-31-2.1-5.2-4.4-10.4-8.4-14.5-5.2-5.2-9.2-5.2-14.5 0-4.2 4.2-6.8 9.2-9.1 14.2zM572.2 915c-4.9 4.3-14.2 3.5-22.6 5.4 10-22.7 19.2-42.7 27.6-63 3.2-7.6 6.5-15.9 6.6-23.9 0.2-15.5 8.3-18.3 21.4-17 7.6 0.7 15.4 0.1 24.9 0.1-11.6 39.5-28.8 72.7-57.9 98.4z m229.2-5.8c-24-26-40.1-55.9-49.9-90.4 2.6-1.1 2.9-1.3 3.4-1.3 36.4-3.7 36-3.5 45.9 30.9 3.5 12.4 8.3 24.5 13.5 36.4 5 11.2 11.5 21.8 17.5 33.2-12.6 3.1-21.7 0.6-30.4-8.8z m32.2-197c-4.3 0.2-9.2 0.7-14 0.7-56 0.1-112.2 0.4-168.2-0.1-10.7-0.1-16.8 2.7-20.9 13.2-6.7 17.1-15.1 33.6-24.2 53.2 21.8 0 41.4 0.4 61-0.5 2.2-0.1 5.7-6.2 6-9.8 0.7-11.8 0.2-23.8 0.2-36.7h38.7V779H823v21.7H712.6c0 21.2 0.1 40.5 0 59.8-0.2 40-22.7 60.5-64.3 58.3-3.1-10.6-4-18.7 10.7-22.2 5.5-1.3 12.7-9.8 12.9-15.4 1.3-26.1 0.6-52.5 0.6-80.4h-116c13.7-29.8 26.4-57.2 40.3-87.6h-49.7v-21.4c16.6 0 33.2 0.2 49.8-0.1 3.9-0.1 10.3-1 11.1-3.2 9.4-23.7 28.7-10.4 45.5-14.5-2.2 6.7-3.7 10.9-5.7 17.1h185.7c0.1 7.8 0.1 13.5 0.1 21.1z" fill="#E12319" p-id="6246"></path><path d="M741.5 300.7c1 2.2-1.1 2.9-2 4.1-12.8 17-28.7 30.8-45.4 43.7-34.8 27-74.6 42.8-117.8 50.3-10.7 1.8-21.6 0-32.3-1.2-7.9-0.9-15.9-1.8-23.8-3.4-1.5-0.2-3.2-1.5-4.6 0.1-0.1 0.1-0.5 0.2-0.6 0.4-0.9-5.6-5.9-3.3-8.7-3.9-24.8-5.7-47.5-16.6-69.6-28.7-28.7-15.9-56.5-33.1-80.4-56-18.4-17.7-34.5-37.1-44.5-61-2-4.8-3.8-9.8-4.5-14.9-0.5-3.7-2-5.9-5.7-7 0.7 8.3 1.2 16.6 0.5 24.8-2.6 33.1-18.5 56.4-50.2 67.9-10.5 3.8-20.6 8.7-32.1 9.8-15.3 1.5-34.3-14.9-27.5-33.1 2.2-5.9 4-11.7 6.7-17.3 3.4-7.1 7.7-13.7 12.7-19.8 12.4-15.1 21-32.5 28.2-50.6 4.1-10.3 8.7-20.4 12.8-30.8 4.8-11.8 15.1-13.9 25.6-10.7 5.1 1.6 9.8 4.4 13.8 7.8 7.8 6.6 16.7 11.7 25.3 17.5 1.5 1 2.6 1.5 4.1-0.2 16.4-17.7 36.7-29.5 58.5-39.1 42.8-19 87.7-31.4 133.9-39.1 37.6-6.2 75.4-7.4 113.5-5.6 0.7 0 1.5-0.1 2.2-0.1 2.1 0.1 4.1 0.1 6.2 0.2 1.5 0.5 2.9 0.6 4.4 0.4 0.9 0.1 1.7 0.1 2.7 0.2 5.4 0.5 10.6 1.1 16 1.6 0.9 0.1 1.7 0.1 2.6 0.2 1.8 0.2 3.5 0.4 5.4 0.6 0.6 0.1 1.2 0.1 1.7 0.2 1.1 0.5 2.3 0.7 3.5 0.5 1.2 0.2 2.6 0.4 3.8 0.6 8.9 2 17.9 3.7 26.8 5.9 24.3 6 47.7 14 67.6 30.1 16 12.9 22.2 29.2 18.9 49.9-4.5 27.9-14.3 53.7-28.1 78.2-1.7 3.1-4.8 4.6-6.8 7.2-1.8 0.6-3.7 1-5.4 1.8-9.3 4.4-19.2 7.3-29.2 9-38.4 6.5-76.3 3.7-113.2-8.8-34.8-11.7-62.4-33.4-84.2-62.7-2.2-3.1-6.3-4.1-8.9-2.4-2.4 1.6-3.5 7.8-1.6 10.5 6.8 9.6 14.6 18.7 23.1 27 29.4 28.7 65.4 44.2 105.3 51.3 25.3 4.5 50.8 4.4 76.2 0.9 8.5-1.3 16.8-3.9 25.1-6.3zM711 165.6c7.7 0.4 15.3 1.8 23.1 1.1 9.9-0.9 19.4-2.4 27.7-8.4 5.4-3.9 6.1-10 2-15.1-1.6-2-3.5-3.7-5.7-4.9-8.4-4.8-17.3-8.3-26.8-9.5-9.8-1.2-19.5-1.8-29.5-0.7-7.9 0.9-15.5 2-22.5 5.7-5.2 2.9-10 7.1-10 13.2 0 6.5 5.9 9.5 11.1 12.1 9.5 4.7 20.1 5.4 30.6 6.5z m-197.6-0.5c-0.9 8.2 6.2 16.4 14.8 17.3 7.6 0.9 17.8-6.6 18.7-13.5 1-7.4-6.8-16.4-15-17.1-9.8-0.8-17.5 4.8-18.5 13.3z" fill="#EEEEEE" p-id="6247"></path><path d="M447.6 445.8c1.3 4.6 2.9 8.9 5.7 12.6 8.7 11.7 21.4 9.6 30.6 4.4 1.1-0.6 1.7-2 2.4-3.2 11-18.3 21.8-36.6 32.7-55 1.7-2.9 3.3-3.5 6.7-2.9 14.6 2.7 29.3 4.9 44.2 3.1 7.1-0.9 13.9-2.4 21-6.5v7.3c-0.4 44.2-0.7 88.5-0.9 132.7 0 4.1-1.2 4.9-5 4.5-9.3-0.9-9.2-0.7-11.5-9.9-2.7-10.3-4-21-7.8-31-2.1-5.2-4.4-10.4-8.4-14.5-5.2-5.2-9.2-5.2-14.5 0-3.9 3.9-6.5 8.8-8.8 13.8-5.4 11.7-8.3 24.4-12 36.7-0.9 2.8-1.8 4.3-5 4.1-3.7 0-8.4 2.2-10.7 0.1-2.4-2.2-0.2-7 0-10.5 1.1-14 1.7-28.1 0.9-42.5-4.6 1.5-8.3 4.3-11.7 7.2-13.3 11.1-24.3 24.4-36.7 36.2-2.1 2-4.1 3.8-6 6-2.7 3.4-6.3 3.8-10.3 4.1-3.5 0.4-4.3-0.7-2.4-4 6.7-11.2 13.2-22.6 19.8-33.8 3.5-6.1 7-12.4 10.9-18.4 2-3.1 0.6-3.7-1.8-4.3-4.5-1.1-8.5-3.3-12.2-6.1-9-6.3-13.1-20.2-9.2-30.2z" fill="#EEEEEE" p-id="6248"></path><path d="M741.5 300.7c-8.3 2.4-16.6 4.9-25.3 6.1-25.5 3.5-50.9 3.7-76.2-0.9-39.9-7.1-75.8-22.6-105.3-51.3-8.5-8.3-16.2-17.2-23.1-27-2-2.7-0.9-8.8 1.6-10.5 2.7-1.7 6.7-0.6 8.9 2.4 21.8 29.3 49.4 51 84.2 62.7 36.9 12.4 74.8 15.1 113.2 8.8 10.1-1.7 19.9-4.6 29.2-9 1.7-0.7 3.5-1.2 5.4-1.8 1 4.8-3.7 7.1-4.8 11-1 3.3-3.9 5.4-6 7.9-0.6-0.1-1 0.1-1 0.7l0.1-0.1c-0.5 0.3-1.2 0.3-0.9 1zM635.7 105.1c-2.1-0.1-4.1-0.1-6.2-0.2 2.2-2.1 4.2-1.3 6.2 0.2z m40.1 4.1c-1.2-0.2-2.6-0.4-3.8-0.6 1.5-1.1 2.7-0.7 3.8 0.6z m-33-3.6c-0.9-0.1-1.7-0.1-2.7-0.2 1-0.9 1.9-0.8 2.7 0.2z m18.6 1.8c-0.9-0.1-1.7-0.1-2.6-0.2 0.9-0.9 1.8-0.8 2.6 0.2z m7.1 0.8c-0.6-0.1-1.2-0.1-1.7-0.2 0.6-0.7 1.2-0.6 1.7 0.2z" fill="#282526" p-id="6249"></path><path d="M742.3 300.1c0.1-0.6 0.5-0.7 1-0.7-0.1 0.4-0.1 1.1-1 0.7z" fill="#EEEEEE" p-id="6250"></path><path d="M741.4 300.8c-0.1-0.9 0.5-0.9 1.1-0.9-0.2 0.7 0.3 2-1.1 0.9z" fill="#EEEEEE" p-id="6251"></path><path d="M711 165.6c-10.5-1.1-21-2-30.8-6.5-5.4-2.6-11.1-5.6-11.1-12.1 0-6.1 4.8-10.4 10-13.2 7-3.8 14.5-4.9 22.5-5.7 10-1.1 19.8-0.5 29.5 0.7 9.5 1.2 18.4 4.9 26.8 9.5 2.2 1.2 4.1 2.9 5.7 4.9 4.1 5.1 3.4 11.2-2 15.1-8.3 6-17.8 7.4-27.7 8.4-7.7 0.9-15.2-0.7-22.9-1.1z" fill="#282526" p-id="6252"></path><path d="M513.4 165.1c1-8.5 8.7-14.2 18.5-13.3 8.2 0.7 15.9 9.6 15 17.1-0.9 6.8-11.1 14.3-18.7 13.5-8.6-0.8-15.6-9.1-14.8-17.3z" fill="#444243" p-id="6253"></path><path d="M597 713.2h-49.7v-21.4c16.6 0 33.2 0.2 49.8-0.1 3.9-0.1 10.3-1 11.1-3.2 9.4-23.7 28.7-10.4 45.5-14.5-2.2 6.7-3.7 10.9-5.7 17.1h185.7v21.1c-4.3 0.2-9.2 0.7-14 0.7-56 0.1-112.2 0.4-168.2-0.1-10.7-0.1-16.8 2.7-20.9 13.2-6.7 17.1-15.1 33.6-24.2 53.2 21.8 0 41.4 0.4 61-0.5 2.2-0.1 5.7-6.2 6-9.8 0.7-11.8 0.2-23.8 0.2-36.7h38.7V779H823v21.7H712.7c0 21.2 0.1 40.5 0 59.8-0.2 40-22.7 60.5-64.3 58.3-3.1-10.6-4-18.7 10.7-22.2 5.5-1.3 12.7-9.8 12.9-15.4 1.3-26.1 0.6-52.5 0.6-80.4h-116c13.8-29.8 26.5-57.4 40.4-87.6zM313 918.4v-17c24.4-8.7 25.6-10.5 25.6-37.3v-62.7H225V731h266.6v69.6H378.2V861c-0.6 39.7-23.3 60.4-65.2 57.4z m-50.1-140.2h191.2v-26.1H262.9v26.1z m-47.6-66.4v-20.1H338c0.6-5.9 1-10.4 1.6-15.9h37.6c0.7 5 1.5 9.9 2.4 16.1h91.6c4.6 0 9.3-0.1 13.9-0.1 18.3-0.1 18.3 0 16.1 20.1-94.7-0.1-189.6-0.1-285.9-0.1z" fill="#FFFFFF" p-id="6254"></path><path d="M751.5 818.6c2.6-1.1 2.9-1.3 3.4-1.3 36.4-3.7 36-3.5 45.9 30.9 3.5 12.4 8.3 24.5 13.5 36.4 5 11.2 11.5 21.8 17.5 33.2-12.6 3.4-21.7 0.9-30.4-8.5-24-26.1-40.3-56.1-49.9-90.7z m-332.1-1.3h38.3c13.3 34.4 26.1 67.7 39.1 101.2-8.8 2.6-17.7 1-26.1-8.1-24.5-26.4-41.1-56.5-51.3-93.1z m-119.2-0.6c-9 20.1-15.6 37.7-24.8 53.9-7.6 13.5-18.2 25.5-27.5 38.1-7.4 10-17.2 13.2-31 9 4.4-7.8 9.5-14.8 12.4-22.6 8.4-22.3 16.5-44.9 23.6-67.7 2.3-7.3 4.3-11.2 12.6-10.7 10.1 0.4 20.1 0 34.7 0z m329.8-0.2c-11.5 39.5-28.7 72.6-57.8 98.4-4.9 4.3-14.2 3.5-22.6 5.4 10-22.7 19.2-42.7 27.6-63 3.2-7.6 6.5-15.9 6.6-23.9 0.2-15.5 8.3-18.3 21.4-17 7.4 0.7 15.2 0.1 24.8 0.1z" fill="#FFFFFF" p-id="6255"></path></svg>