<?xml version="1.0" standalone="no"?><!DOCTYPE svg PUBLIC "-//W3C//DTD SVG 1.1//EN" "http://www.w3.org/Graphics/SVG/1.1/DTD/svg11.dtd"><svg t="1731480406067" class="icon" viewBox="0 0 1024 1024" version="1.1" xmlns="http://www.w3.org/2000/svg" p-id="4394" xmlns:xlink="http://www.w3.org/1999/xlink" width="128" height="128"><path d="M204.8 0h614.4C931.84 0 1024 92.16 1024 204.8v614.4c0 112.64-92.16 204.8-204.8 204.8H204.8C92.16 1024 0 931.84 0 819.2V204.8C0 92.16 92.16 0 204.8 0z" fill="#F40009" p-id="4395"></path><path d="M286.767 148.992L92.277 286.348l194.49 142.661V148.992z m15.36 0v280.017L502.55 290.351 302.127 148.992zM92.277 306.316v277.992l191.162-138.961L92.276 306.316z m194.49 153.32v278.668L92.277 595.991l194.49-136.355z m15.36 0v278.668l190.79-139.334-190.79-139.334z m6.656 290.7l197.12 142.01-1.024-280.32-196.096 138.31z m209.78-138.31v280.32l196.422-142.36-196.422-137.96z m11.962-12.032l191.511-141.312 1.001 279.622-192.512-138.31z m205.126-141.312v279.622l196.515-140.8L735.65 458.682z m4.701-14.36l191.814 139.986V305.361L740.352 444.323z m-4.701-295.33v280.017L932.166 287 735.65 148.992z m-12.614 0l-203.473 142.01L723.037 429.01V148.992z" fill="#FFFFFF" p-id="4396"></path><path d="M387.212 239.825c-0.35 6.912-6.773 12.382-14.639 12.382-7.913 0-14.29-5.47-14.638-12.382-16.524 2.793-22.622 8.053-35.398 14.546a2.676 2.676 0 0 0-0.652 4.282l10.333 15.36 5.423-5.469v55.087a5.592 5.592 0 0 0 5.585 5.608h58.159c3.328 0 6.05-2.746 6.05-6.074v-54.69l5.423 5.492 9.705-12.684c1.629-1.63 2.21-6.377 0.116-7.4-12.427-6.308-20.34-12.219-35.467-14.058zM199.936 326.75c0.233 0.396 4.096 6.726 11.473 7.028a14.22 14.22 0 0 0 10.473-4.421c0.722 0.651 5.609 4.654 12.52 3.7a16.105 16.105 0 0 0 10.474-6.26c0.535 0.349 6.283 3.956 11.24 1.49 5.353-2.677 6.005-9.938 5.004-14.244-0.605-2.49-1.63-3.328-4.538-7.494-0.652-0.954-3.445-5.771-9.03-15.5a1106.85 1106.85 0 0 1-8.145-14.289 259.322 259.322 0 0 1 3.258-13.987c1.303-5.12 2.094-7.4 1-10.24-0.349-0.93-0.698-1.512-3.723-6.283 2.187-4.515 2.071-8.518 0.233-9.775-1.14-0.768-2.747-0.28-3.026-0.233-2.63 0.792-4.492 4.073-4.492 8.239a13.103 13.103 0 0 0-10.24 5.772 15.01 15.01 0 0 0-10.752-5.772c0.163-3.887-1.442-7.028-4.002-7.983-0.35-0.116-1.839-0.721-3.026-0.07-1.955 1.071-2.49 5.12-0.652 10.078a21.41 21.41 0 0 0-2.746 7.494c-0.838 4.887 0.233 9.122 1.024 11.985 1.42 5.423 2.91 6.54 2.49 9.775a11.567 11.567 0 0 1-3.258 6.493c-6.19 11.124-12.334 22.341-18.525 33.466-1 4.654 1.024 9.402 5.004 11.73a10.612 10.612 0 0 0 11.962-0.699z m-56.18 89.228c0.768-10.613 8.867-19.014 18.501-20.015 11.078-1.187 21.97 7.61 22.97 20.015a22.319 22.319 0 0 1 12.614 5.422c1.909 1.792 4.585 4.934 7.262 16.757 2.28 10.007 2.792 18.385 3.63 31.79a16.663 16.663 0 0 1-14.22 12.754h-59.438a17.804 17.804 0 0 1-14.988-14.476c-0.14-2.327-0.977-26.461 6.005-39.261 1.07-1.908 2.955-5.492 7.005-8.518a24.67 24.67 0 0 1 10.659-4.468z" fill="#F40009" p-id="4397"></path><path d="M151.017 415.744h27.485s-2.723-11.985-13.731-11.985-13.754 11.985-13.754 11.985z" fill="#FFFFFF" p-id="4398"></path><path d="M253.905 636.51h6.494s-0.768-29.44 0-34.026c1.722-10.007 11.077-27.043 10.007-33.233-2.28-13.219-14.778-21.504-16.5-20.736-1.723 0.768-16.478 17.268-20.993 29.486-4.538 12.219-12.753 29.254-13.986 29.487-1.257 0.233-14.476 2.025-26.485 6.516-11.078 4.143-20.014 8.495-17.966 12.498 2.001 3.98 13.73 10.007 30.23 10.007 19.736 0 26.462-1.257 29.976-16.035 3.468-14.475 3.817-21.318 10.24-27.997 0.466-0.465 4.12-4.236 6.26-3.258 0 0 0.466 0.233 2.49 3.258l0.233 44.032z m75.171-3.515h87.18a7.215 7.215 0 0 0 2.979-1.49 7.517 7.517 0 0 0 2.49-4.235v-58.252a9.658 9.658 0 0 0-2.49-3.514 9.751 9.751 0 0 0-5.772-2.28h-13.498c-0.908-1.956-2.513-2.98-6.26-8.216-1.373-1.908-3.561-2.374-5.004-2.979h-32.163c-1.14 0.605-2.979 1.024-3.747 2.514-2.746 5.236-5.236 6.609-6.027 8.75-5.888 0.233-11.823 0.466-17.734 0.768a6.656 6.656 0 0 0-5.283 5.958v57.716a6.865 6.865 0 0 0 5.353 5.26z m109.15 57.018l-5.237 6.703h10.706l-5.47-6.726z m-54.459 58.484c0.536-3.816 3.63-24.436 22.249-38.004a55.668 55.668 0 0 1 51.898-7.098c9.286 3.7 16.617 10.24 17.804 11.31 4.329 3.957 8.029 7.285 10.775 12.987 6.47 13.521 4.329 20.736 6.47 20.736a26.6 26.6 0 0 0-27.183 0 25.274 25.274 0 0 0-22.039-2.98v42.473a18.618 18.618 0 0 1-4.096 6.912 19.27 19.27 0 0 1-19.084 5.12c-9.541-2.909-13.288-12.87-13.172-17.268a9.31 9.31 0 0 1 0.954-3.7c0.233-0.35 2.211-3.933 5.237-3.817 2.746 0.14 4.584 3.165 5.236 5.004 0.884 2.443-0.186 3.35 0.768 5.003 1.56 2.863 6.68 4.19 9.24 2.514 1.303-0.885 3.91-5.074 2.955-3.747l1.257-38.796a26.252 26.252 0 0 0-21.97 3.212 27.252 27.252 0 0 0-13.73-3.724 28.532 28.532 0 0 0-13.569 3.863z m168.774-16.337v49.873a8.378 8.378 0 0 0 8.332 8.332h48.919a7.028 7.028 0 0 0 7.028-7.028v-50.99a5.353 5.353 0 0 0-5.352-5.354H557.66c-2.793 0-5.12 2.328-5.12 5.167z m5.05-13.15h55.645c1.63 0 3.026-1.14 3.212-2.629 0.186-1.722-0.535-3.63-4.817-3.63h-54.016a3.142 3.142 0 0 0-3.212 3.095c-0.047 1.722 1.443 3.165 3.212 3.165z m2.514-6.283s7.214-14.452 20.992-14.452c25.949-0.07 28.742 14.476 28.742 14.476h-49.734z" fill="#F40009" p-id="4399"></path><path d="M587.636 703.162h-4.328a2.723 2.723 0 0 1-2.747-2.746v-5.47a2.75 2.75 0 0 1 2.747-2.745h4.352a2.717 2.717 0 0 1 2.723 2.746v5.469a2.723 2.723 0 0 1-2.723 2.746z m51.899-140.171c2.7-1.862 9.006-5.54 17.757-6.005 10.938-0.605 18.85 4.213 21.48 6.005l-4.235-15.198a5.167 5.167 0 0 0-5.004-3.793h-21.48a4.538 4.538 0 0 0-4.422 3.375l-4.073 15.616z m39.168 66.792c-2.677 1.839-8.984 5.516-17.734 6.005-10.938 0.581-18.851-4.236-21.481-6.028l4.236 15.197a5.167 5.167 0 0 0 4.98 3.817h21.48c2.095 0 3.957-1.443 4.423-3.398l4.096-15.593z" fill="#F40009" p-id="4400"></path><path d="M627.526 595.875a31.372 31.372 0 1 0 62.72 0 31.372 31.372 0 1 0-62.72 0z m149.248-39.61h-3.212a2.397 2.397 0 0 1-2.374-2.397v-11.73a2.384 2.384 0 0 1 2.374-2.374h3.212a2.404 2.404 0 0 1 2.397 2.374v11.73a2.397 2.397 0 0 1-2.397 2.397z m27.787 0h-3.444a2.56 2.56 0 0 1-2.56-2.56v-14.197a2.56 2.56 0 0 1 2.56-2.56h3.444a2.56 2.56 0 0 1 2.56 2.56v14.197a2.56 2.56 0 0 1-2.56 2.56z m28.044 0h-3.63a2.676 2.676 0 0 1-2.677-2.677v-11.217a2.676 2.676 0 0 1 2.677-2.676h3.63a2.676 2.676 0 0 1 2.676 2.676v11.217a2.746 2.746 0 0 1-2.676 2.677z m2.188 85.48h-63.14a8.006 8.006 0 0 1-8.028-8.052v-66.001a3.212 3.212 0 0 1 3.211-3.212h73.31a2.915 2.915 0 0 1 2.932 2.91v66.094a8.262 8.262 0 0 1-8.285 8.261z" fill="#F40009" p-id="4401"></path><path d="M841.588 583.238s14.57 1.629 19.456 9.774c5.47 9.123 2.677 19.782-3.49 24.716-6.517 5.26-14.476 5.26-14.476 5.26v-7.517s13.73-3.98 12.497-13.522c-1.256-9.542-13.987-11.008-13.987-11.008v-7.68z m-37.003-142.36a7.913 7.913 0 0 0 0.116 7.867c3.328 5.702 10.752 13.87 19.316 19.549 11.45 7.494 20.713 6.004 20.713 6.004s14.243 12.986 18.525 13.987c4.282 1.024 5.47-1.257 5.47-4.748v-14.01s10.007-3.747 15.243-9.006c5.236-5.237 8.215-8.75 11.24-7.727 3.026 1 10.473 11.264 16.245 12.265 5.772 1 10.007-2.514 7.983-8.518-2.025-6.028-5.493-11.683-5.493-11.683s6.028-8.099 6.028-13.824c0-5.771-5.772-10.24-11.008-7.494-5.236 2.747-11.008 11.963-14.476 11.963-3.444 0-10.705-9.635-17.734-12.8-7.028-3.166-8.494-4.19-8.494-4.19s1.722-14.987 0-17.245c-1.746-2.28-8.215 0.233-12.265 3.259-4.05 3.048-11.008 10.24-11.008 10.24s-12.497-0.233-26.973 9.774c-6.353 4.422-10.938 11.8-13.452 16.338z m-43.45-148.759a42.636 42.636 0 1 0 85.224 0 42.636 42.636 0 1 0-85.224 0z" fill="#F40009" p-id="4402"></path><path d="M771.375 226.001s10.705-2.443 18.501 0.768c10.24 4.236 11.241 18.549 11.241 18.549s-9.449 5.469-19.456-2.025c-10.007-7.517-10.286-17.292-10.286-17.292z m55.761 5.12s-8.099-1.838-13.987 0.606c-7.75 3.211-8.518 13.986-8.518 13.986s7.215 4.19 14.755-1.489c7.564-5.655 7.75-13.103 7.75-13.103z m-189.254 98.235h43.753c0.349 0 0.512-0.466 0.163-0.652a76.8 76.8 0 0 0-11.125-5.19c-7.028-2.49-8.983-4.212-8.983-4.212v-14.895s8.983-7.563 14.988-12.218 15.709-17.385 15.709-28.113c0-10.706-3.98-27.881-3.98-27.881h-59.624s-4.236 23.831-2.025 33.838c3.723 12.754 14.987 21.97 20.713 27.23 5.701 5.236 8.494 7.493 8.494 7.493V320l-18.316 8.285c-0.535 0.233-0.372 1.07 0.233 1.07z" fill="#F40009" p-id="4403"></path><path d="M436.969 386.001l19.456-41.518 15.01 40.494 15.989 2.048v14.243l24.46-5.003-17.734-50.502 47.43 20.014-11.055 33.7 23.087-5.237 20.48-49.757 33.745 26.298-33.28 25.716 33.28-0.232 8.192 25.716h-21.225l-7.517 31.046 27.253 5.655 8.75 24.553-32.489 3.747-7.493 52.247-17.734 11.543-11.24-66.001-21.412-1.536-13.358 56.297-18.688 11.24-2.188-64.023-16.012-1.745-6.26-19.55-7.261 9.542-10.007 76.987-39.68-28.254 25.483-7.214-4.7-37.05-13.988 11.799-12.032-40.03 27.741-4.467-3.258-27.998-8.238-1.792-13.266-24.226z" fill="#FFFFFF" p-id="4404"></path><path d="M478.93 407.738l-7.75 10.24-3.957 28.789 23.971-1.42-7.26 15.895 23.97-8.518-5.353-24.948-16.128-4.538-7.494-15.477z m60.16 19.735l20.247-4.468 2.792 28.463-27.508 5.306 4.468-29.324z" fill="#F40009" p-id="4405"></path></svg>